<svg viewBox="0 0 214 150" fill="#fafafa" xmlns="http://www.w3.org/2000/svg">
<g clip-path="url(#clip0_27_4)">
<path d="M88.9375 98.125C90.7708 95.625 92.3125 92.9375 93.5625 90.0625C94.8542 87.1875 96.2708 81.625 97.8125 73.375C99.3958 65.0833 100.854 58.75 102.188 54.375C103.521 49.9583 105.688 44.5625 108.688 38.1875C111.688 31.8125 114.167 27.1667 116.125 24.25L115.75 24.0625L99.875 44.1875C85.4583 62.4375 72.2292 76.1042 60.1875 85.1875C48.1875 94.2708 37.1875 98.8125 27.1875 98.8125C22.5625 98.8125 18.8333 97.8125 16 95.8125C13.1667 93.8125 11.75 91.25 11.75 88.125C11.75 86.0417 12.4375 84.2292 13.8125 82.6875C15.1875 81.1042 16.75 80.3125 18.5 80.3125C19.5417 80.3125 20.4375 80.6667 21.1875 81.375C21.9792 82.0833 22.375 82.9375 22.375 83.9375C22.375 84.8958 22.0417 85.6875 21.375 86.3125C20.75 86.9375 19.9375 87.25 18.9375 87.25C17.3125 87.25 16.1875 86.3542 15.5625 84.5625C15.3125 84.5208 15.0833 84.5 14.875 84.5C13.5833 84.5 12.9375 85.6458 12.9375 87.9375C12.9375 90.8958 14.2708 93.3333 16.9375 95.25C19.6042 97.125 23.0833 98.0625 27.375 98.0625C35.9583 98.0625 45.4375 94.625 55.8125 87.75C66.2292 80.8333 78.0625 69.375 91.3125 53.375C104.604 37.375 113.729 25.9583 118.688 19.125C119.896 17.4167 120.917 16.1458 121.75 15.3125L122.25 15.625C117.125 21.25 112.938 31.9792 109.688 47.8125L108.125 55.0625C105.75 66.0208 100.646 78.6458 92.8125 92.9375L93.125 93.0625L110.312 70.8125C125.104 51.6458 138.312 37.375 149.938 28C161.562 18.5833 172.625 13.875 183.125 13.875C187.125 13.875 190.458 14.75 193.125 16.5C195.833 18.2083 197.188 20.2917 197.188 22.75C197.188 24 196.792 25.0833 196 26C195.208 26.9167 194.25 27.375 193.125 27.375C192.333 27.375 191.646 27.1042 191.062 26.5625C190.479 25.9792 190.188 25.3125 190.188 24.5625C190.188 23.6875 190.521 22.9583 191.188 22.375C191.854 21.75 192.562 21.4375 193.312 21.4375C193.688 21.4375 194.062 21.5417 194.438 21.75C194.854 21.9583 195.125 22.0625 195.25 22.0625C195.75 22.0625 196 21.7083 196 21C196 19.5417 194.667 18.0833 192 16.625C189.333 15.1667 186.312 14.4375 182.938 14.4375C172.354 14.4375 161.271 19.1875 149.688 28.6875C138.146 38.1458 123.688 54.2083 106.312 76.875L89.75 98.75L88.9375 98.125ZM141.5 85.9375L141.938 86.375C140.396 87.8333 138.812 88.5625 137.188 88.5625C135.854 88.5625 134.729 88.0833 133.812 87.125C130.729 90.375 127.438 93.1042 123.938 95.3125C120.438 97.5208 117.521 98.625 115.188 98.625C113.979 98.625 112.958 98.1875 112.125 97.3125C111.292 96.4375 110.875 95.2292 110.875 93.6875C110.875 90.1458 112.458 86.75 115.625 83.5C118.792 80.2083 122.417 77.6667 126.5 75.875C130.625 74.0417 133.896 73.125 136.312 73.125C138.688 73.125 139.875 74.25 139.875 76.5C139.875 78.8333 138 82.1875 134.25 86.5625C135 87.4792 136 87.9375 137.25 87.9375C138.667 87.9375 140.083 87.2708 141.5 85.9375ZM139.312 76.3125C139.312 75.5208 139 74.875 138.375 74.375C137.792 73.875 137.125 73.625 136.375 73.625C133.208 73.625 128.417 76.7917 122 83.125C115.625 89.4583 112.438 93.6458 112.438 95.6875C112.438 96.2708 112.729 96.8125 113.312 97.3125C113.896 97.7708 114.562 98 115.312 98C117.062 98 119.562 97.1042 122.812 95.3125C126.104 93.4792 128.979 91.2708 131.438 88.6875C133.938 86.0625 135.875 83.7292 137.25 81.6875C138.625 79.6042 139.312 77.8125 139.312 76.3125ZM172.688 61.375C172.688 62.2917 172.312 63.0625 171.562 63.6875C170.812 64.3125 170.021 64.625 169.188 64.625C168.604 64.625 168.104 64.4167 167.688 64C167.271 63.5417 167.062 63 167.062 62.375C167.062 61.5833 167.417 60.8333 168.125 60.125C168.833 59.4167 169.625 59.0625 170.5 59.0625C171.125 59.0625 171.646 59.2917 172.062 59.75C172.479 60.2083 172.688 60.75 172.688 61.375ZM142 86.375L141.562 85.9375C143.604 84.1875 148.75 80.1042 157 73.6875H163.062L143.25 93.1875C142.5 93.9375 142 94.6875 141.75 95.4375V95.875C141.75 96.4167 141.958 96.8958 142.375 97.3125C142.792 97.7292 143.312 97.9375 143.938 97.9375C145.271 97.9375 147.146 97.2708 149.562 95.9375C152.021 94.5625 156.292 91.2292 162.375 85.9375L162.812 86.375C153.521 94.5 147.25 98.5625 144 98.5625C142.958 98.5625 142.104 98.2292 141.438 97.5625C140.812 96.8958 140.5 96 140.5 94.875C140.5 93.2917 141.021 91.625 142.062 89.875C143.146 88.0833 147.146 83.8542 154.062 77.1875L153.938 76.875L148.188 81.25L142 86.375ZM162.875 86.375L162.438 85.9375L171.938 78.125C173.438 76.9167 174.5 75.9792 175.125 75.3125C173.792 74.5208 173.125 73.4375 173.125 72.0625C173.125 71.1875 173.417 70.4167 174 69.75C174.625 69.0833 175.312 68.75 176.062 68.75C176.604 68.75 177.083 68.9792 177.5 69.4375C177.958 69.8958 178.188 70.4583 178.188 71.125C178.188 71.7917 177.958 72.375 177.5 72.875C177.042 73.3333 176.479 73.5625 175.812 73.5625C175.354 73.5625 174.875 73.3958 174.375 73.0625C174.333 73.2292 174.312 73.3333 174.312 73.375C174.312 73.75 174.604 74.125 175.188 74.5C175.771 74.875 176.625 75.0625 177.75 75.0625C179.375 75.0625 181.125 74.6458 183 73.8125L186.312 77.5C185.521 79.0417 183.875 80.9583 181.375 83.25C178.917 85.5 176.458 87.9167 174 90.5C171.542 93.0417 170.146 94.5625 169.812 95.0625C169.479 95.5625 169.312 96.0417 169.312 96.5C169.312 97.6667 169.979 98.25 171.312 98.25C172.896 98.25 175.354 97.3333 178.688 95.5C182.021 93.625 186.271 90.4375 191.438 85.9375L191.875 86.375C182.167 94.75 175.271 98.9375 171.188 98.9375C169.979 98.9375 169.021 98.5625 168.312 97.8125C167.646 97.0208 167.312 96 167.312 94.75C167.312 93.1667 167.812 91.5833 168.812 90C169.854 88.4167 172.062 85.9792 175.438 82.6875C178.812 79.3958 181.146 76.9375 182.438 75.3125L182.188 74.875C180.438 75.5 178.812 75.8125 177.312 75.8125C176.896 75.8125 176.458 75.75 176 75.625L162.875 86.375Z"/>
<path d="M54.71 134.499L54.5869 135C54.1826 135.088 53.8516 135.132 53.5938 135.132C53.3477 135.132 52.9404 135.105 52.3721 135.053C51.9443 135.018 51.5605 135 51.2207 135C50.6348 135 50.0312 135.053 49.4102 135.158L49.5332 134.675C50.125 134.616 50.5557 134.493 50.8252 134.306C51.0186 134.171 51.1826 133.942 51.3174 133.62C51.458 133.292 51.7715 132.155 52.2578 130.21L53.3828 125.552L53.4443 125.332C53.0986 125.32 52.8379 125.314 52.6621 125.314C51.5781 125.314 50.7168 125.432 50.0781 125.666C49.4453 125.9 48.9678 126.24 48.6455 126.686C48.3291 127.131 48.1709 127.611 48.1709 128.127C48.1709 128.309 48.2031 128.476 48.2676 128.628C48.3145 128.733 48.4434 128.903 48.6543 129.138C48.8535 129.354 48.9531 129.554 48.9531 129.735C48.9531 129.894 48.8945 130.028 48.7773 130.14C48.6602 130.251 48.5195 130.307 48.3555 130.307C48.1094 130.307 47.9102 130.189 47.7578 129.955C47.5352 129.609 47.4238 129.17 47.4238 128.637C47.4238 127.922 47.6436 127.228 48.083 126.554C48.5283 125.88 49.1377 125.358 49.9111 124.989C50.6846 124.62 51.625 124.436 52.7324 124.436C53.2598 124.436 54.1006 124.512 55.2549 124.664C56.0752 124.77 56.6699 124.822 57.0391 124.822C57.4082 124.822 57.6689 124.761 57.8213 124.638C57.9736 124.515 58.0498 124.351 58.0498 124.146C58.0498 124.104 58.041 124.022 58.0234 123.899C58.0059 123.788 57.9971 123.715 57.9971 123.68C57.9971 123.521 58.0498 123.39 58.1553 123.284C58.2607 123.179 58.3867 123.126 58.5332 123.126C58.709 123.126 58.8525 123.19 58.9639 123.319C59.0811 123.448 59.1396 123.621 59.1396 123.838C59.1396 124.283 58.9023 124.667 58.4277 124.989C57.9531 125.312 57.1592 125.473 56.0459 125.473C55.6475 125.473 55.2227 125.455 54.7715 125.42C54.7129 125.631 54.5283 126.346 54.2178 127.564L53.4531 130.605L52.9873 132.46L52.5039 134.578C52.8965 134.625 53.2217 134.648 53.4795 134.648C53.8721 134.648 54.2822 134.599 54.71 134.499ZM63.1534 123.829C63.3351 123.829 63.4845 123.891 63.6017 124.014C63.7189 124.131 63.7775 124.283 63.7775 124.471C63.7775 124.729 63.6866 124.957 63.505 125.156C63.3292 125.35 63.13 125.446 62.9073 125.446C62.7316 125.446 62.5851 125.385 62.4679 125.262C62.3507 125.139 62.2921 124.978 62.2921 124.778C62.2921 124.515 62.3771 124.292 62.547 124.11C62.7169 123.923 62.9191 123.829 63.1534 123.829ZM59.6905 129.647L59.3038 129.349C59.8898 128.704 60.423 128.247 60.9034 127.978C61.3898 127.702 61.8029 127.564 62.1427 127.564C62.3302 127.564 62.4738 127.605 62.5734 127.688C62.673 127.77 62.7228 127.881 62.7228 128.021C62.7228 128.191 62.5323 128.912 62.1515 130.184C61.5304 132.264 61.2198 133.518 61.2198 133.945C61.2198 134.027 61.2404 134.098 61.2814 134.156C61.3224 134.209 61.3663 134.235 61.4132 134.235C61.6007 134.235 62.0812 133.872 62.8546 133.146L63.1974 133.479C62.3946 134.235 61.8087 134.719 61.4396 134.93C61.0704 135.141 60.7687 135.246 60.5343 135.246C60.3292 135.246 60.1652 135.182 60.0421 135.053C59.9249 134.924 59.8663 134.745 59.8663 134.517C59.8663 133.784 60.3058 131.994 61.1847 129.146C61.2257 129.012 61.2462 128.892 61.2462 128.786C61.2462 128.669 61.1935 128.61 61.088 128.61C60.9708 128.61 60.8361 128.657 60.6837 128.751C60.5372 128.845 60.2062 129.144 59.6905 129.647ZM66.8508 129.63L66.5871 129.278C67.1672 128.698 67.718 128.271 68.2395 127.995C68.761 127.72 69.1711 127.582 69.47 127.582C69.593 127.582 69.6838 127.608 69.7424 127.661C69.8069 127.714 69.8391 127.787 69.8391 127.881C69.8391 127.998 69.7922 128.224 69.6985 128.558C69.5637 129.05 69.47 129.439 69.4172 129.727C70.8235 128.297 71.8987 127.582 72.6428 127.582C72.8362 127.582 72.9827 127.635 73.0823 127.74C73.1819 127.846 73.2317 128.013 73.2317 128.241C73.2317 128.487 73.1438 128.906 72.968 129.498C73.636 128.801 74.2161 128.309 74.7082 128.021C75.2004 127.729 75.5842 127.582 75.8596 127.582C76.1057 127.582 76.2961 127.652 76.4309 127.793C76.5657 127.934 76.633 128.15 76.633 128.443C76.633 128.619 76.6038 128.827 76.5452 129.067C76.4866 129.308 76.2727 130.04 75.9036 131.265C75.4407 132.782 75.2092 133.688 75.2092 133.98C75.2092 134.18 75.2913 134.279 75.4553 134.279C75.5666 134.279 75.675 134.244 75.7805 134.174C76.1262 133.928 76.4807 133.623 76.844 133.26L77.134 133.576C77.011 133.676 76.7795 133.881 76.4397 134.191C75.9709 134.613 75.6487 134.877 75.4729 134.982C75.133 135.182 74.8459 135.281 74.6116 135.281C74.4358 135.281 74.2805 135.193 74.1457 135.018C74.011 134.848 73.9436 134.61 73.9436 134.306C73.9436 134.024 73.9846 133.696 74.0666 133.321C74.1487 132.94 74.3889 132.091 74.7873 130.772C75.0862 129.782 75.2356 129.182 75.2356 128.971C75.2356 128.771 75.1477 128.672 74.9719 128.672C74.8254 128.672 74.6291 128.745 74.383 128.892C73.8791 129.196 73.4573 129.568 73.1174 130.008C72.883 130.312 72.678 130.796 72.5022 131.458C72.1096 132.905 71.8166 134.086 71.6233 135H70.3752L71.6848 129.63C71.7786 129.243 71.8254 129.021 71.8254 128.962C71.8254 128.868 71.802 128.798 71.7551 128.751C71.7082 128.698 71.6409 128.672 71.553 128.672C71.3948 128.672 71.1487 128.795 70.8147 129.041C70.2346 129.457 69.8157 129.861 69.5579 130.254C69.3059 130.641 69.0891 131.232 68.9075 132.029L68.2307 135H66.9739L67.967 130.808C68.26 129.595 68.4065 128.936 68.4065 128.83C68.4065 128.695 68.3538 128.628 68.2483 128.628C68.0198 128.628 67.5539 128.962 66.8508 129.63ZM80.8929 129.63L80.6293 129.278C81.2093 128.698 81.7601 128.271 82.2816 127.995C82.8031 127.72 83.2132 127.582 83.5121 127.582C83.6351 127.582 83.7259 127.608 83.7845 127.661C83.849 127.714 83.8812 127.787 83.8812 127.881C83.8812 127.998 83.8343 128.224 83.7406 128.558C83.6058 129.05 83.5121 129.439 83.4593 129.727C84.8656 128.297 85.9408 127.582 86.6849 127.582C86.8783 127.582 87.0248 127.635 87.1244 127.74C87.224 127.846 87.2738 128.013 87.2738 128.241C87.2738 128.487 87.1859 128.906 87.0101 129.498C87.6781 128.801 88.2582 128.309 88.7504 128.021C89.2425 127.729 89.6263 127.582 89.9017 127.582C90.1478 127.582 90.3382 127.652 90.473 127.793C90.6078 127.934 90.6752 128.15 90.6752 128.443C90.6752 128.619 90.6459 128.827 90.5873 129.067C90.5287 129.308 90.3148 130.04 89.9457 131.265C89.4828 132.782 89.2513 133.688 89.2513 133.98C89.2513 134.18 89.3334 134.279 89.4974 134.279C89.6087 134.279 89.7171 134.244 89.8226 134.174C90.1683 133.928 90.5228 133.623 90.8861 133.26L91.1761 133.576C91.0531 133.676 90.8216 133.881 90.4818 134.191C90.013 134.613 89.6908 134.877 89.515 134.982C89.1752 135.182 88.888 135.281 88.6537 135.281C88.4779 135.281 88.3226 135.193 88.1879 135.018C88.0531 134.848 87.9857 134.61 87.9857 134.306C87.9857 134.024 88.0267 133.696 88.1087 133.321C88.1908 132.94 88.431 132.091 88.8295 130.772C89.1283 129.782 89.2777 129.182 89.2777 128.971C89.2777 128.771 89.1898 128.672 89.014 128.672C88.8675 128.672 88.6712 128.745 88.4252 128.892C87.9212 129.196 87.4994 129.568 87.1595 130.008C86.9252 130.312 86.7201 130.796 86.5443 131.458C86.1517 132.905 85.8587 134.086 85.6654 135H84.4173L85.7269 129.63C85.8207 129.243 85.8675 129.021 85.8675 128.962C85.8675 128.868 85.8441 128.798 85.7972 128.751C85.7504 128.698 85.683 128.672 85.5951 128.672C85.4369 128.672 85.1908 128.795 84.8568 129.041C84.2767 129.457 83.8578 129.861 83.6 130.254C83.348 130.641 83.1312 131.232 82.9496 132.029L82.2728 135H81.016L82.0091 130.808C82.3021 129.595 82.4486 128.936 82.4486 128.83C82.4486 128.695 82.3959 128.628 82.2904 128.628C82.0619 128.628 81.5961 128.962 80.8929 129.63ZM99.3032 132.794L99.5932 133.181C98.1577 134.546 96.9272 135.229 95.9018 135.229C95.4858 135.229 95.1665 135.088 94.9438 134.807C94.727 134.525 94.6186 134.074 94.6186 133.453C94.6186 132.199 94.9995 130.951 95.7612 129.709C96.6167 128.297 97.6391 127.591 98.8286 127.591C99.2446 127.591 99.561 127.696 99.7778 127.907C100 128.112 100.112 128.396 100.112 128.76C100.112 129.141 99.98 129.516 99.7163 129.885C99.4526 130.254 98.9809 130.638 98.3013 131.036C97.9614 131.229 97.2348 131.578 96.1216 132.082C96.0688 132.398 96.0425 132.7 96.0425 132.987C96.0425 133.403 96.1069 133.693 96.2358 133.857C96.3706 134.021 96.5639 134.104 96.8159 134.104C97.0561 134.104 97.3198 134.036 97.6069 133.901C97.9936 133.72 98.5591 133.351 99.3032 132.794ZM96.227 131.52C97.1704 131.098 97.8794 130.644 98.354 130.157C98.6763 129.817 98.8374 129.48 98.8374 129.146C98.8374 128.895 98.77 128.695 98.6352 128.549C98.5063 128.396 98.3364 128.32 98.1255 128.32C97.9087 128.32 97.6977 128.402 97.4927 128.566C97.2173 128.783 96.9858 129.111 96.7983 129.551C96.5288 130.195 96.3384 130.852 96.227 131.52ZM105.321 135H104.011L104.627 132.636C104.925 131.476 105.186 130.374 105.409 129.331C105.462 129.073 105.488 128.912 105.488 128.848C105.488 128.707 105.423 128.637 105.295 128.637C105.207 128.637 105.072 128.698 104.89 128.821C104.709 128.938 104.38 129.234 103.906 129.709L103.633 129.401C104.196 128.798 104.755 128.347 105.312 128.048C105.875 127.743 106.305 127.591 106.604 127.591C106.71 127.591 106.792 127.617 106.85 127.67C106.915 127.717 106.947 127.778 106.947 127.854C106.947 127.931 106.909 128.133 106.833 128.461L106.455 130.034C107.046 129.103 107.714 128.306 108.459 127.644C108.816 127.327 109.115 127.169 109.355 127.169C109.531 127.169 109.677 127.228 109.795 127.345C109.912 127.456 109.97 127.588 109.97 127.74C109.97 127.898 109.912 128.033 109.795 128.145C109.683 128.256 109.399 128.388 108.942 128.54C108.508 128.687 108.154 128.862 107.879 129.067C107.609 129.272 107.31 129.586 106.982 130.008C106.66 130.43 106.434 130.799 106.305 131.115C106.176 131.426 105.98 132.152 105.716 133.295L105.321 135ZM115.601 127.854C115.871 127.667 116.076 127.573 116.217 127.573C116.328 127.573 116.419 127.611 116.489 127.688C116.559 127.758 116.594 127.846 116.594 127.951C116.594 128.18 116.422 128.338 116.076 128.426L115.399 129.753C115.229 130.122 115.1 130.491 115.012 130.86C114.93 131.229 114.889 131.607 114.889 131.994C114.889 132.48 115.007 133.26 115.241 134.332C116.143 133.734 116.984 132.935 117.763 131.933C117.758 131.681 117.755 131.496 117.755 131.379C117.755 130.09 117.945 129.073 118.326 128.329C118.578 127.837 118.856 127.591 119.161 127.591C119.342 127.591 119.492 127.67 119.609 127.828C119.732 127.98 119.794 128.209 119.794 128.514C119.794 128.76 119.747 129.044 119.653 129.366C119.495 129.894 119.307 130.377 119.091 130.816C119.091 132.293 119.202 133.465 119.425 134.332C120.128 133.852 120.81 133.248 121.472 132.521C121.959 131.988 122.328 131.435 122.58 130.86C122.832 130.28 122.958 129.806 122.958 129.437C122.958 129.255 122.893 129.021 122.764 128.733C122.618 128.399 122.545 128.156 122.545 128.004C122.545 127.852 122.6 127.723 122.712 127.617C122.823 127.506 122.958 127.45 123.116 127.45C123.309 127.45 123.462 127.544 123.573 127.731C123.69 127.913 123.749 128.241 123.749 128.716C123.749 129.923 123.224 131.188 122.176 132.513C121.127 133.837 119.846 134.859 118.335 135.58C118.147 134.941 117.974 133.992 117.816 132.732C117.019 133.529 116.524 134.007 116.331 134.165C115.944 134.487 115.569 134.763 115.206 134.991C114.848 135.214 114.465 135.41 114.054 135.58C114.013 135.246 113.92 134.707 113.773 133.963C113.568 132.914 113.466 132.164 113.466 131.713C113.466 131.104 113.612 130.506 113.905 129.92C114.204 129.328 114.649 128.81 115.241 128.364C114.18 128.394 113.425 128.517 112.973 128.733C112.669 128.88 112.516 129.056 112.516 129.261C112.516 129.337 112.551 129.46 112.622 129.63C112.686 129.788 112.718 129.905 112.718 129.981C112.718 130.087 112.68 130.178 112.604 130.254C112.528 130.33 112.431 130.368 112.314 130.368C112.162 130.368 112.033 130.301 111.927 130.166C111.822 130.031 111.769 129.841 111.769 129.595C111.769 129.126 111.98 128.745 112.402 128.452C113.011 128.024 114.078 127.825 115.601 127.854ZM131.709 132.794L131.999 133.181C130.563 134.546 129.333 135.229 128.307 135.229C127.891 135.229 127.572 135.088 127.349 134.807C127.133 134.525 127.024 134.074 127.024 133.453C127.024 132.199 127.405 130.951 128.167 129.709C129.022 128.297 130.045 127.591 131.234 127.591C131.65 127.591 131.967 127.696 132.183 127.907C132.406 128.112 132.517 128.396 132.517 128.76C132.517 129.141 132.386 129.516 132.122 129.885C131.858 130.254 131.387 130.638 130.707 131.036C130.367 131.229 129.64 131.578 128.527 132.082C128.474 132.398 128.448 132.7 128.448 132.987C128.448 133.403 128.513 133.693 128.641 133.857C128.776 134.021 128.97 134.104 129.222 134.104C129.462 134.104 129.725 134.036 130.013 133.901C130.399 133.72 130.965 133.351 131.709 132.794ZM128.633 131.52C129.576 131.098 130.285 130.644 130.76 130.157C131.082 129.817 131.243 129.48 131.243 129.146C131.243 128.895 131.176 128.695 131.041 128.549C130.912 128.396 130.742 128.32 130.531 128.32C130.314 128.32 130.103 128.402 129.898 128.566C129.623 128.783 129.391 129.111 129.204 129.551C128.934 130.195 128.744 130.852 128.633 131.52ZM137.727 135H136.417L137.032 132.636C137.331 131.476 137.592 130.374 137.814 129.331C137.867 129.073 137.894 128.912 137.894 128.848C137.894 128.707 137.829 128.637 137.7 128.637C137.612 128.637 137.478 128.698 137.296 128.821C137.114 128.938 136.786 129.234 136.311 129.709L136.039 129.401C136.602 128.798 137.161 128.347 137.718 128.048C138.28 127.743 138.711 127.591 139.01 127.591C139.115 127.591 139.197 127.617 139.256 127.67C139.32 127.717 139.353 127.778 139.353 127.854C139.353 127.931 139.314 128.133 139.238 128.461L138.86 130.034C139.452 129.103 140.12 128.306 140.864 127.644C141.222 127.327 141.52 127.169 141.761 127.169C141.936 127.169 142.083 127.228 142.2 127.345C142.317 127.456 142.376 127.588 142.376 127.74C142.376 127.898 142.317 128.033 142.2 128.145C142.089 128.256 141.805 128.388 141.348 128.54C140.914 128.687 140.56 128.862 140.284 129.067C140.015 129.272 139.716 129.586 139.388 130.008C139.065 130.43 138.84 130.799 138.711 131.115C138.582 131.426 138.386 132.152 138.122 133.295L137.727 135ZM145.739 135H144.43L145.581 130.21C146.138 127.837 146.501 126.375 146.671 125.824C146.847 125.273 147.055 124.819 147.295 124.462C147.541 124.104 147.846 123.785 148.209 123.504C148.578 123.223 148.974 123.009 149.396 122.862C149.823 122.71 150.198 122.634 150.521 122.634C150.825 122.634 151.051 122.692 151.197 122.81C151.35 122.927 151.426 123.082 151.426 123.275C151.426 123.439 151.358 123.58 151.224 123.697C151.089 123.814 150.919 123.873 150.714 123.873C150.456 123.873 150.066 123.829 149.545 123.741C149.375 123.706 149.226 123.688 149.097 123.688C148.915 123.688 148.742 123.753 148.578 123.882C148.42 124.011 148.276 124.242 148.148 124.576C148.024 124.904 147.849 125.59 147.62 126.633L146.996 129.445C147.559 128.807 148.142 128.314 148.745 127.969C149.202 127.711 149.639 127.582 150.055 127.582C150.348 127.582 150.594 127.693 150.793 127.916C150.998 128.133 151.101 128.408 151.101 128.742C151.101 129.369 150.775 129.929 150.125 130.421C149.475 130.913 148.482 131.177 147.146 131.212C147.597 131.411 147.957 131.631 148.227 131.871C148.496 132.105 148.76 132.434 149.018 132.855C149.281 133.271 149.618 133.972 150.028 134.956C150.515 136.128 150.966 136.907 151.382 137.294C151.792 137.681 152.243 137.874 152.735 137.874C153.023 137.874 153.26 137.81 153.447 137.681C153.635 137.558 153.729 137.432 153.729 137.303C153.729 137.221 153.699 137.109 153.641 136.969C153.576 136.816 153.544 136.688 153.544 136.582C153.544 136.447 153.597 136.327 153.702 136.222C153.808 136.116 153.931 136.063 154.071 136.063C154.235 136.063 154.376 136.128 154.493 136.257C154.61 136.392 154.669 136.567 154.669 136.784C154.669 137.206 154.476 137.581 154.089 137.909C153.702 138.237 153.198 138.401 152.577 138.401C151.939 138.401 151.367 138.24 150.863 137.918C150.359 137.596 149.888 137.08 149.448 136.371C149.196 135.961 148.757 135.026 148.13 133.567C147.837 132.876 147.573 132.357 147.339 132.012C147.157 131.742 146.908 131.476 146.592 131.212L145.739 135ZM146.662 130.843C147.453 130.849 148.092 130.772 148.578 130.614C149.07 130.456 149.419 130.245 149.624 129.981C149.835 129.718 149.941 129.431 149.941 129.12C149.941 128.897 149.879 128.719 149.756 128.584C149.639 128.449 149.495 128.382 149.325 128.382C148.774 128.382 147.931 128.997 146.794 130.228L146.662 130.843ZM159.79 132.794L160.08 133.181C158.645 134.546 157.414 135.229 156.389 135.229C155.973 135.229 155.654 135.088 155.431 134.807C155.214 134.525 155.106 134.074 155.106 133.453C155.106 132.199 155.487 130.951 156.248 129.709C157.104 128.297 158.126 127.591 159.316 127.591C159.732 127.591 160.048 127.696 160.265 127.907C160.488 128.112 160.599 128.396 160.599 128.76C160.599 129.141 160.467 129.516 160.203 129.885C159.94 130.254 159.468 130.638 158.788 131.036C158.448 131.229 157.722 131.578 156.609 132.082C156.556 132.398 156.529 132.7 156.529 132.987C156.529 133.403 156.594 133.693 156.723 133.857C156.858 134.021 157.051 134.104 157.303 134.104C157.543 134.104 157.807 134.036 158.094 133.901C158.481 133.72 159.046 133.351 159.79 132.794ZM156.714 131.52C157.657 131.098 158.366 130.644 158.841 130.157C159.163 129.817 159.324 129.48 159.324 129.146C159.324 128.895 159.257 128.695 159.122 128.549C158.993 128.396 158.823 128.32 158.613 128.32C158.396 128.32 158.185 128.402 157.98 128.566C157.704 128.783 157.473 129.111 157.285 129.551C157.016 130.195 156.825 130.852 156.714 131.52ZM164.446 129.665L164.147 129.357C164.897 128.643 165.494 128.168 165.94 127.934C166.385 127.699 166.766 127.582 167.082 127.582C167.205 127.582 167.302 127.608 167.372 127.661C167.443 127.714 167.478 127.775 167.478 127.846C167.478 127.898 167.463 127.992 167.434 128.127L167.038 129.894C167.636 129.231 168.386 128.613 169.288 128.039C169.769 127.74 170.164 127.591 170.475 127.591C170.703 127.591 170.882 127.664 171.011 127.811C171.14 127.957 171.204 128.168 171.204 128.443C171.204 128.625 171.178 128.83 171.125 129.059C171.032 129.439 170.785 130.269 170.387 131.546C170.012 132.741 169.825 133.535 169.825 133.928C169.825 134.045 169.842 134.133 169.877 134.191C169.912 134.25 169.962 134.279 170.027 134.279C170.197 134.279 170.463 134.115 170.826 133.787C171.084 133.553 171.342 133.336 171.6 133.137L171.82 133.453C171.281 134.051 170.721 134.531 170.141 134.895C169.772 135.129 169.467 135.246 169.227 135.246C169.004 135.246 168.831 135.164 168.708 135C168.585 134.842 168.524 134.581 168.524 134.218C168.524 133.696 168.849 132.398 169.499 130.324C169.699 129.586 169.798 129.155 169.798 129.032C169.798 128.851 169.69 128.76 169.473 128.76C169.239 128.76 168.937 128.883 168.568 129.129C168.017 129.492 167.557 129.92 167.188 130.412C166.953 130.729 166.757 131.232 166.599 131.924L165.887 134.991H164.577C164.824 134.112 165.037 133.271 165.219 132.469L166.001 129.129C166.031 128.994 166.045 128.897 166.045 128.839C166.045 128.681 165.987 128.602 165.869 128.602C165.776 128.602 165.641 128.663 165.465 128.786C165.102 129.026 164.762 129.319 164.446 129.665Z"/>
</g>
<defs>
<clipPath id="clip0_27_4">
<rect width="214" height="150"/>
</clipPath>
</defs>
</svg>
